<?xml version="1.0" standalone="no"?>
<!DOCTYPE svg PUBLIC "-//W3C//DTD SVG 20010904//EN"
 "http://www.w3.org/TR/2001/REC-SVG-20010904/DTD/svg10.dtd">
<svg version="1.0" xmlns="http://www.w3.org/2000/svg"
 width="700.000000pt" height="700.000000pt" viewBox="0 0 700.000000 700.000000"
 preserveAspectRatio="xMidYMid meet">
<metadata>
Created by potrace 1.14, written by Peter Selinger 2001-2017
</metadata>
<g transform="translate(0.000000,700.000000) scale(0.100000,-0.100000)"
fill="#000000" stroke="none">
<path d="M2142 5499 c-96 -12 -162 -89 -162 -189 0 -53 23 -112 57 -142 55
-50 -7 -48 1455 -48 890 0 1376 4 1399 10 78 22 124 86 128 177 3 63 -24 120
-74 159 -27 20 -50 27 -97 31 -99 7 -2647 9 -2706 2z"/>
<path d="M1342 4732 c-37 -11 -93 -62 -109 -99 -19 -48 -19 -123 2 -167 22
-46 77 -92 120 -100 38 -7 4248 -9 4282 -2 88 19 145 92 144 186 0 82 -32 135
-103 171 -36 18 -96 19 -2175 18 -1176 -1 -2148 -4 -2161 -7z"/>
<path d="M585 4002 c-47 -10 -95 -53 -125 -109 -19 -37 -20 -58 -20 -508 0
-259 2 -491 5 -518 11 -119 61 -324 100 -412 49 -113 70 -153 111 -222 138
-228 301 -385 529 -510 141 -77 342 -151 477 -177 12 -2 34 -7 48 -10 39 -9
107 -19 205 -31 50 -6 3111 -7 3145 -1 14 3 55 7 93 11 37 3 73 8 80 10 6 2
30 7 52 10 140 20 452 133 565 205 139 89 177 119 270 210 150 147 230 269
340 515 35 78 80 271 95 405 7 68 7 943 0 985 -12 63 -74 126 -140 143 -39 10
-5785 14 -5830 4z m5576 -404 c0 -7 1 -157 1 -333 1 -279 -2 -348 -17 -450 -5
-39 -47 -180 -61 -207 -8 -15 -14 -30 -14 -33 1 -12 -66 -135 -108 -199 -174
-263 -516 -438 -927 -473 -103 -8 -3009 -9 -3095 0 -269 27 -506 119 -720 279
-173 130 -312 370 -366 633 -13 63 -17 183 -16 460 0 171 1 316 1 323 1 9 540
12 2661 12 2121 0 2660 -3 2661 -12z"/>
<path d="M4554 3416 c-157 -51 -215 -245 -112 -371 35 -42 108 -80 159 -84
162 -11 289 144 244 296 -37 125 -172 198 -291 159z"/>
<path d="M2843 3236 c-87 -21 -164 -66 -239 -141 -147 -144 -195 -333 -135
-526 20 -63 77 -162 119 -205 60 -62 164 -127 226 -140 210 -46 375 -7 512
122 101 95 154 215 160 360 9 237 -121 429 -346 512 -77 29 -217 37 -297 18z"/>
<path d="M4090 2951 c-109 -35 -172 -124 -166 -233 10 -164 168 -266 322 -208
37 14 104 80 121 119 49 113 1 250 -108 307 -37 19 -131 27 -169 15z"/>
<path d="M5011 2946 c-47 -17 -108 -70 -131 -115 -57 -112 -10 -253 105 -314
52 -28 154 -29 205 -3 168 87 175 317 14 412 -53 31 -137 40 -193 20z"/>
<path d="M4561 2484 c-56 -16 -100 -48 -135 -96 -37 -51 -47 -147 -22 -210 92
-239 446 -174 448 81 2 153 -147 268 -291 225z"/>
</g>
</svg>
